<?xml version="1.0" encoding="UTF-8"?>
<svg id="Layer_2" data-name="Layer 2" xmlns="http://www.w3.org/2000/svg" viewBox="0 0 758.87 388.31">
  <defs>
    <style>
      .cls-1 {
        fill: #17a2ed;
      }

      .cls-1, .cls-2 {
        stroke-width: 0px;
      }

      .cls-2 {
        fill: #c6d8f2;
      }
    </style>
  </defs>
  <g id="Icon">
    <g id="icon">
      <g>
        <g>
          <rect class="cls-2" x="274.2" y="6.5" width="203" height="203"/>
          <path class="cls-1" d="M470.7,13v190h-190V13h190M483.7,0h-216v216h216V0h0Z"/>
        </g>
        <path class="cls-1" d="M380.2,45h-9c-27.34,0-49.5,22.16-49.5,49.5v108.5h13v-108.5c0-20.13,16.37-36.5,36.5-36.5h9c20.13,0,36.5,16.37,36.5,36.5v108.5h13v-108.5c0-27.34-22.16-49.5-49.5-49.5h0Z"/>
        <path class="cls-1" d="M347.34,139.5c4.73-1.89,10,0,9.5,5.5-.72,7.87-8.5,7.5-11,5-1.5-1.5-2.5-8.5,1.5-10.5Z"/>
      </g>
    </g>
  </g>
  <g id="MyRoomPal">
    <g>
      <path class="cls-1" d="M0,359.48v-95.2h20.26l28.97,53.58,28.83-53.58h19.72v95.2h-20.4v-60.52l-22.58,41.48h-12.1l-22.44-41.48v60.52H0Z"/>
      <path class="cls-1" d="M127.7,388.31c-1.36,0-2.72-.14-4.08-.41v-15.23c1.36.27,2.72.41,4.08.41,1.81,0,3.33-.45,4.56-1.36,1.22-.91,2.36-2.36,3.4-4.35,1.04-2,2.2-4.62,3.47-7.89l-30.46-72.08h20.13l19.58,49.78,17.82-49.78h18.63l-27.74,72.08c-2.63,6.8-5.17,12.31-7.62,16.52-2.45,4.22-5.33,7.32-8.64,9.32-3.31,1.99-7.68,2.99-13.12,2.99Z"/>
      <path class="cls-1" d="M195.97,359.48v-95.2h38.49c7.98,0,14.62,1.27,19.92,3.81,5.3,2.54,9.32,6.1,12.04,10.68,2.72,4.58,4.08,9.95,4.08,16.12,0,6.53-1.68,12.22-5.03,17.07-3.36,4.85-8.48,8.36-15.37,10.54l23.12,36.99h-23.53l-19.99-34.82h-13.46v34.82h-20.26ZM216.24,308.61h14.28c7.52,0,12.69-1.16,15.5-3.47,2.81-2.31,4.22-5.73,4.22-10.27s-1.41-7.96-4.22-10.27c-2.81-2.31-7.98-3.47-15.5-3.47h-14.28v27.47Z"/>
      <path class="cls-1" d="M316.33,361.11c-6.53,0-12.54-1.34-18.02-4.01-5.49-2.67-9.86-6.75-13.12-12.24-3.26-5.48-4.9-12.4-4.9-20.74v-2.72c0-7.89,1.63-14.46,4.9-19.72,3.26-5.26,7.64-9.22,13.12-11.9,5.48-2.67,11.49-4.01,18.02-4.01s12.53,1.34,18.02,4.01c5.48,2.68,9.86,6.64,13.12,11.9,3.26,5.26,4.9,11.83,4.9,19.72v2.72c0,8.16-1.63,14.98-4.9,20.47-3.26,5.49-7.64,9.61-13.12,12.38-5.49,2.76-11.49,4.15-18.02,4.15ZM316.33,345.88c3.44,0,6.51-.79,9.18-2.38,2.67-1.58,4.78-4.01,6.32-7.28s2.31-7.3,2.31-12.1v-2.72c0-4.44-.77-8.16-2.31-11.15-1.54-2.99-3.65-5.28-6.32-6.87-2.68-1.59-5.74-2.38-9.18-2.38s-6.51.79-9.18,2.38c-2.68,1.59-4.78,3.88-6.32,6.87-1.54,2.99-2.31,6.71-2.31,11.15v2.72c0,4.9.77,8.96,2.31,12.17,1.54,3.22,3.65,5.62,6.32,7.21,2.67,1.59,5.73,2.38,9.18,2.38Z"/>
      <path class="cls-1" d="M396.71,361.11c-6.53,0-12.54-1.34-18.02-4.01-5.49-2.67-9.86-6.75-13.12-12.24-3.26-5.48-4.9-12.4-4.9-20.74v-2.72c0-7.89,1.63-14.46,4.9-19.72,3.26-5.26,7.64-9.22,13.12-11.9,5.48-2.67,11.49-4.01,18.02-4.01s12.53,1.34,18.02,4.01c5.48,2.68,9.86,6.64,13.12,11.9,3.26,5.26,4.9,11.83,4.9,19.72v2.72c0,8.16-1.63,14.98-4.9,20.47-3.26,5.49-7.64,9.61-13.12,12.38-5.49,2.76-11.49,4.15-18.02,4.15ZM396.71,345.88c3.44,0,6.5-.79,9.18-2.38,2.67-1.58,4.78-4.01,6.32-7.28,1.54-3.26,2.31-7.3,2.31-12.1v-2.72c0-4.44-.77-8.16-2.31-11.15-1.54-2.99-3.65-5.28-6.32-6.87-2.68-1.59-5.74-2.38-9.18-2.38s-6.51.79-9.18,2.38c-2.68,1.59-4.78,3.88-6.32,6.87-1.54,2.99-2.31,6.71-2.31,11.15v2.72c0,4.9.77,8.96,2.31,12.17,1.54,3.22,3.65,5.62,6.32,7.21,2.67,1.59,5.73,2.38,9.18,2.38Z"/>
      <path class="cls-1" d="M444.58,359.48v-72.08h16.32v10.74c1.63-3.17,4.28-6.03,7.96-8.57,3.67-2.54,7.91-3.81,12.72-3.81,5.8,0,10.36,1.18,13.67,3.54,3.31,2.36,5.64,5.49,7,9.38,1.99-3.81,4.87-6.91,8.64-9.32,3.76-2.4,8.23-3.6,13.4-3.6,7.62,0,13.44,2.22,17.48,6.66,4.03,4.44,6.05,11.15,6.05,20.13v46.92h-17.95v-42.84c0-5.71-.93-9.75-2.79-12.1-1.86-2.36-4.83-3.54-8.91-3.54-2.36,0-4.54.61-6.53,1.84-2,1.22-3.6,3.01-4.83,5.37-1.22,2.36-1.84,5.17-1.84,8.43v42.84h-17.82v-42.84c0-5.71-.93-9.75-2.79-12.1-1.86-2.36-4.83-3.54-8.91-3.54-2.36,0-4.56.61-6.6,1.84-2.04,1.22-3.63,3.01-4.76,5.37-1.13,2.36-1.7,5.17-1.7,8.43v42.84h-17.82Z"/>
      <path class="cls-1" d="M565.07,359.48v-95.2h36.58c8.61,0,15.73,1.29,21.35,3.88,5.62,2.58,9.79,6.21,12.51,10.88,2.72,4.67,4.08,10.18,4.08,16.52s-1.36,11.86-4.08,16.52c-2.72,4.67-6.89,8.3-12.51,10.88-5.62,2.58-12.74,3.88-21.35,3.88h-16.32v32.64h-20.26ZM585.34,309.97h14.28c7.25,0,12.35-1.22,15.3-3.67,2.95-2.45,4.42-6.03,4.42-10.74s-1.47-8.18-4.42-10.68c-2.95-2.49-8.05-3.74-15.3-3.74h-14.28v28.83Z"/>
      <path class="cls-1" d="M670.34,361.11c-5.17,0-9.57-.98-13.19-2.92-3.63-1.95-6.39-4.65-8.3-8.09-1.9-3.45-2.86-7.34-2.86-11.7,0-7.25,2.15-12.69,6.46-16.32,4.3-3.62,10.76-5.44,19.38-5.44h21.49v-3.4c0-4.71-1.07-8.02-3.2-9.93-2.13-1.9-5.51-2.86-10.13-2.86-4.08,0-7.03.7-8.84,2.11-1.81,1.41-2.86,3.15-3.13,5.24h-17.95c.27-4.17,1.61-7.91,4.01-11.22,2.4-3.31,5.85-5.94,10.34-7.89,4.49-1.95,9.9-2.92,16.25-2.92s11.54.91,16.12,2.72c4.58,1.81,8.14,4.74,10.68,8.77,2.54,4.04,3.81,9.45,3.81,16.25v27.61c0,3.81.07,7.14.2,10,.14,2.86.38,5.64.75,8.36h-16.73c-.36-1.99-.57-3.51-.61-4.56-.05-1.04-.07-2.61-.07-4.69-1.9,2.9-4.9,5.44-8.98,7.62s-9.25,3.26-15.5,3.26ZM675.91,347.24c2.9,0,5.69-.52,8.36-1.56,2.67-1.04,4.85-2.67,6.53-4.9,1.68-2.22,2.52-5.05,2.52-8.5v-3.4h-18.09c-3.45,0-6.14.79-8.09,2.38-1.95,1.59-2.92,3.74-2.92,6.46,0,2.9,1,5.21,2.99,6.94,1.99,1.72,4.9,2.58,8.7,2.58Z"/>
      <path class="cls-1" d="M750.17,360.29c-5.53,0-10.04-.75-13.53-2.24-3.49-1.5-6.05-4.03-7.68-7.62-1.63-3.58-2.45-8.59-2.45-15.03v-71.13h17.82v68.95c0,4.62.66,7.75,1.97,9.38,1.31,1.63,3.92,2.45,7.82,2.45,1,0,1.86-.02,2.58-.07.72-.04,1.45-.11,2.18-.2v14.96c-.45.18-1.22.32-2.31.41-1.09.09-2.22.14-3.4.14h-2.99Z"/>
    </g>
  </g>
</svg>